<svg xmlns="http://www.w3.org/2000/svg" viewBox="0 0 800 316"><path fill="#569A83" d="M118.9 23.8c3.5 0 5.1 1.7 5.1 5.1v171.5c0 6.3-1.2 12.4-3.7 18s-5.7 10.5-9.9 14.7c-4.2 4.2-9.1 7.5-14.7 9.9s-11.6 3.7-18 3.7h-14c-6.3 0-12.4-1.2-18-3.7-5.6-2.4-10.5-5.7-14.7-9.9s-7.5-9.1-9.9-14.7c-2.5-5.6-3.7-11.6-3.7-18v-39.3c0-3.5 1.6-5.6 4.8-6.6l33.4-8.8c3.2-1 4.8.2 4.8 3.7v49.2c0 2.5.8 4.5 2.6 6.2 1.7 1.7 3.8 2.6 6.2 2.6h3c2.4 0 4.5-.8 6.2-2.6 1.7-1.7 2.6-3.8 2.6-6.2V29c0-3.5 1.7-5.1 5.1-5.1.1-.1 32.8-.1 32.8-.1zM261.7 239c.5 3.5-1 5.1-4.4 5.1h-33.4c-3.2 0-5-1.7-5.5-5.1l-3-35.9h-22.8l-3 35.9c-.5 3.5-2.4 5.1-5.5 5.1h-33.4c-3.5 0-4.9-1.7-4.4-5.1l27.6-210c.5-3.5 2.4-5.1 5.9-5.1h48.5c3.5 0 5.4 1.7 5.9 5.1l27.5 210zm-49.2-77.1l-6.9-81.2h-3l-6.9 81.2h16.8zM346.1 23.8c6.3 0 12.3 1.2 18 3.7 5.6 2.5 10.5 5.7 14.7 9.9s7.5 9.1 9.9 14.7 3.7 11.6 3.7 18v127.8c0 6.3-1.2 12.4-3.7 18s-5.7 10.5-9.9 14.7c-4.2 4.2-9.1 7.5-14.7 9.9-5.6 2.5-11.6 3.7-18 3.7h-55c-3.5 0-5.1-1.7-5.1-5.1V29c0-3.5 1.7-5.1 5.1-5.1l55-.1zm3.4 48.1c0-2.4-.8-4.5-2.6-6.2-1.7-1.7-3.8-2.6-6.2-2.6H329v141.7h11.7c2.4 0 4.5-.8 6.2-2.6 1.7-1.7 2.6-3.8 2.6-6.2V71.9zm162.3 134.4V239c0 3.5-1.7 5.1-5.1 5.1H427c-3.5 0-5.1-1.7-5.1-5.1V29c0-3.5 1.7-5.1 5.1-5.1h79.6c3.5 0 5.1 1.7 5.1 5.1v32.6c0 3.5-1.7 5.1-5.1 5.1h-41.9v41.9H501c3.5 0 5.1 1.7 5.1 5.1v32.7c0 3.5-1.7 5.1-5.1 5.1h-36.3v49.6h41.9c3.5 0 5.2 1.7 5.2 5.2z"/><path fill="#C1272D" d="M723.7 144.1c1.1 1.1 1.2 2.9-.1 3.8-3.2 2.1-7.3 1.8-11.1 1.4-6.4-.7-14-1-17.3-7-.1 0-.1-.1-.2-.2-4.2-2.3 2.9-3.9 4.9-4.2 4.5-.6 9.3.6 13.7 1.6 3.7.7 7.2 1.7 10.1 4.6zm58.4 95.4c-3 2.1-1.7 5.7-3.8 8.2-2.1 2.4-7.2 2.4-9.9 2.4-11.5.1-22.7-.8-34 .1-2.9.2-5.5.6-8.2 1.3-.8.2-2.1.7-3 .2-2.3-1.2-4.4-5-7.4-3.8-2.5 1.1-4.4 4.7-7.4 2.5-5.5-4.1-10.1-.4-15.9.7-6 1.2-11.7-2.1-17.6-.5-4.4 1.3-8.6 2.6-13.1 1.1-4.5-1.6-5.7-5.1-1.8-8.4 6.2-5.1 13.9-5.9 21.6-5.3 11.7 1 23.3.1 35-.5.4 0 .6.2.6.5 5 2 8.2-2 11.1-5.5.4-.5 1.1-.2 1.3.1 4.2 6.2 9.3-.8 14.6-.2 1.4.1 2.7.5 3.6 1.8.4.6.5 1.3.5 2 .2 3.2 4.3 2.5 4.2-.7 0-.5.6-1 1.1-.8 4.2 1.7 9.6 3.9 13-.5 2.9-3.7 3.3-9 3.6-13.5.6-12.1-.2-24.5-1.1-36.5-.7-11.7-2-23.6-.6-35.3 1.4-11.6 1.3-22.9 1.1-34.6-.1-6.1-.4-12.2 0-18.3.2-5.6 1.2-11.6.6-17.2-.6-5-3.6-9.3-4.2-14.2-.6-4.5 0-9.2 1.1-13.6.6-2.7 2-6 1.9-8.8-.1-2.4-.2-4.9-.1-7.3 0-1.2-.2-3.1.7-4.1 1.4-1.7 2.1-4.2-1.2-4.5-7.9-1-16-6-23.5-1.1.1 1.7.2 3.6-.2 5.3l1.1 1.4c1.9.8 3.8 1.1 5.9 1.2 2.4 0 5-.6 7.4-.4 2 .2 3.7 2 3 4.3-.5 1.7-2 3.1-2.9 4.5-1.6 2.5-1.3 6.1-1.3 9-.1 7.3 0 14.6.2 21.7.2 6 .8 12.1 1.2 18.1.1.1.5.2.5.5.2 6.8 2.5 13.5 2.6 20.3.1.1-1.8 8.4-1.8 8.4-.1 8.8-.8 25.1-.8 25.1-.1 15-2.7 29.9-.1 44.8 1.1 6-1.2 11.8-1.4 17.8-.2 6.6.6 13.1-.4 19.7.1.4 0 .8-.5 1-13.7 2.6-27.6 3.1-41.6 2.3-3.5-.2-7.6-.5-11 .8-1.3.6-3.1 1.4-4.7 1.3-2-.2-3-1.8-4.9-2.1-2.4-.5-4.7-1-7-1.2-6.2-.8-12.1-1.2-17.9 1.3-3.2 1.4-6.6.8-9.8-.5-3.8-1.6-6.7-3.5-10.9-1.4-1.7.8-3.2 1.7-5.1 2.1-1.6.4-3 0-4.4-.6-3.2-1.2-5.7-1.6-9.1-1 .4.5.1 1.4-.6 1.4-20.3-1.1-40.7 1.3-61 1.6-1 .2-1.7 1.3-2.3 1.3h-.6c-.5 0-.6-1.7-.5-2-2.7-3-2-12.9-1.9-15.8.8-18.9-1.6-37.9-2.1-56.7-.2-9.4-.2-18.9 1.3-28.2 1.8-10.5 1.8-20.7 1.6-31.2-.5-20.9 1.6-41.7 1-62.6 0-.4.4-.5.6-.4l.2-.1c5.6-.5 11.7-2 17.2-.5.1 0 .2.1.2.2l.8.1h6.2c.2 0 .5.1.5.2 11 .1 22-.8 33-1.3 3.8-.1 7.8 0 11.6-1.2 1.9-.6 4.2-1.6 6.2-1.4 5 .4 10.1 1.9 15 3 3.5.7 5.9-5.3 9-3.2 4.7 3 10.1 1.9 15.5 2 2.9.1 5.6-.5 8.5-.5 1.6 0 2.9.4 4.3.7 1.4-.2 2.6-.1 4.2.5l25.6-.8c5.1.1 10.7.5 15.6-1.4 1.3-.5 2-1.2 2.4-2-.2-.4-.4-.8-.6-1.3-.4-.7-.8-1.6-1.3-2.1-5.5-1.8-11.8-1.3-17.6-1.6-7.9-.4-15.6.7-23.5 1.3-7.3.6-14.9 1.1-22.2.5-4.3-.4-12.4-2.3-16.1.7-.4.2-.7.2-1.1 0-7-5.7-16.2 2.9-24.2.5-4.8-1.4-9.3-2.4-14.4-1.8-4.9.5-9.7 1.2-14.7 1.2-10.9-.1-21.7.6-32.6.2-2.4-.1-4.7-.1-6.9-.4-1.9-.2-4.4-1.2-6.3-.4-3 1.1-3.6 2.1-3.3 3 .8.6-2 4.4-2 6.3l-.2 5c-.1 7.4-.6 14.2-2.3 21.4-.8 3.8-2.7 9.2-1.3 13 .8 2.5 2.7 4.2 3.8 6.4 1.9 4.1 2 9.1 1.8 13.5l-1.2 43c-.5 14.3-1.4 28.7-.8 43.1.5 13.3 2.6 26.9.8 40.1-.6 4.4-5.9 12.2-.8 15.3 2.9 1.7 6.3 2.1 9.6 2.4 8.1.5 16.2-.4 24.4-1.3 3-.4 6-1 9-1 2.3-.1 4.4.2 6.6 1 1.9.7 4.8 2 7 2 .1.1 3.6-.1 3.8-1.1 3-1.3 5.6-2.3 9.4-1.6 3.7.7 7 1.2 10.9.5 2-.4 5-.6 7-.1l.8.6c.8-.4-.5 1-1.3 1.3-4.5 1.8-3.1 7.6-3.6 11.5 0 .4-.5.5-.7.5-1.8 0-4.3 0-5.3-1.9-2.1-3.9-7.2-6.6-7.2 1.6 0 .5-.4.7-.7.7-.4 0-.7-.2-.7-.7s-5.3-3.3-5.9-3.6c-2.6-1.4-5.6-3.1-8.7-2-1.9.6-3.5 1.7-5.3 2.5-3.2 3.9-6.6 8.1-11.3 5.6-1-.5-4.9-3.9-5.7-3.2-1.1 1.2-2.3 2.4-3.8 3-4.3 1.7-8.8 1.4-13.4 1.3-.2 0-.7-.2-.7-.6-.2-1.8-1.2-5.4-3.7-3.2-.6.5-1.1 1-1.7 1.6-.7.6-1.6 1.4-2.5 1.8-3 1.2-12.2-.4-13.4-2.5-1-1.6-1.3-3.2-1.7-5-.7-4.4-.2-9.2-.4-13.7-.4-11.3-1.2-22.4-2.1-33.7-.5-5.7-1-11.6-.5-17.4.2-3.7.4-8.8 2.3-12.2 1.6-2.7.5-4.9-1.6-6.9-.5-.6-.7-1.7-.7-2.4-.4-4.2.4-8.6.6-12.8.2-3.1.7-6.2.7-9.3 0-2.4-.5-4.7-.7-7-.1-1.2-.2-2.4.5-3.5 1.4-2 1.2-3.1.4-5.4-1.6-4.4 0-9.7.2-14.3.4-5.4.6-10.7 0-16.2-.6-6-1.8-11.8-1.4-17.9.4-5.5.7-10.5 1-15.9.5-9.8.5-19.7.2-29.5v2.3s-.8-12.5 4.4-15.5c8-4.4 17.7-3.7 26.4-4.1 11.3-.5 22.7.6 34 .6 6.6 0 13.1-.1 19.5-1.6 4.5-1 9-1.4 13.6-1.2 5.6.4 11 1.8 16.5 2.3s10.9.2 16.4-.1c11.9-.8 23.9-.5 35.8 0l18.6.8c2.9.1 6.2.8 9 .1l5.3-1.8c3.9-1.1 6.6-.1 10.4.8l14 3.3c1.6-.4 3.1-.5 4.3.7 2.6 2.4.1 5.4 2 8.1 2.3 3.2 4.4 5.3 4.9 9.4.5 4.4.7 9.2-.7 13.5-1 2.9-2.3 6-1.1 9.1.7 1.9 2 3.7 2.5 5.7 1 4.3 1 8.6.7 13-.2 5-.5 10.1-1.1 15-.4 3.2-1.7 6.3-1.8 9.4-.1 2.6.7 4.8 1.2 7.3 1.7 8.2-5.5 13.4-6.8 20.9-.7 4.1 3.9 2.3 6 4.7 1.3 1.6.6 4.2.5 5.9-.5 4.4.8 8.7.6 13.1-.2 5.5-1.9 10-.6 15.5.7 3.1 1.3 6.2.6 9.3s-4.3 10.9.5 12.3c.2 0 .4.2.4.5 0 1.4-.2 2.4-.8 3.7-2.1 4.8 1.2 3.8 1.8 6.9.6 2.9-1.1 3.9-1.6 6.6-.7 4.3 1.6 7.6 1.4 11.8-.1 3.9-2.3 6.1-1.6 9.7.2 0 .5.2.5.5.4 1.9.6 4.1-.1 6-1 2.7-2.1 3.5 1 5.1.8-.6.8.1.3.4zm-52.3-132.7c-1.9-11.7-3-23.9-6.9-35.1-1.7-4.7-2.5-9.8-8-10.7-7.2-1.2-4.8 4.8-3.8 10.5 1.4 8.8 2 17.8 4.3 26.5 1.6 6 4.5 13.1-3.5 8.5-13.4-8.1-18-25.8-23.4-39-2.4-6-9.4-20.3-14.2-23.9-2.3-1.7-13.6-4.2-15.8-2.7-4.7 3.2 9.8 25.7 11.8 29.7 4.4 9 9.1 17.9 14.8 26 4.1 5.7 10.5 11 1.4 14.4-9.4 3.6-14-1.7-20.4-6.6-5.1-3.8-11.6-4.4-18-5.1-17.6-2.1-34.3-.1-48.4 11.6-6.8 5.7-11.1 13.5-14.7 21.5-1 2-6.8 19.7-6 19.8-3.6-.6-1.4-9-6-4.1-4.1 4.3 1.2 16.7 3 21 4.1 9.6 8.4 19 11.6 29 3.2 10 3.9 9.8 13.1 10.6 11.7 1.1 23.2-2.5 34.7-3.9 0 0-20.4-12.7 19.9 1.2 9 3.1 18.5 2.3 27.9 2.6 6.7-1.6 6.9-13.1 10.4-18.5 1.3-2 7.8-12.2 9.8-13 2.9-1.1 7 1.9 9.9 2.3 16.8 2.6 22-11.2 19.3-24.7-2.3-11.8-1-25 .7-34.1.7-3.4-2.9-10.7-3.5-13.8zm-75.1 143.6c-1.8-1.7-4.5-2.1-6.3-3.9-1-1.1-1.3-2.1-1.1-3.3 0 0-.1 0-.1-.1-1.3-2.4 1.7-4.4 3.8-3.6 1.1.5 2.7 1.2 2.9 2.5.1 1.7-1 2.9-1.3 4.4 1.2.7 2.4 2.4 3 3.2.4.7-.4 1.3-.9.8z"/><g fill="#333"><path d="M113.4 273.5l10.7 17.2h.1v-17.2h5.3v25.7h-5.7L113.1 282h-.1v17.2h-5.3v-25.7h5.7zM141.4 281.1c.6-1.6 1.4-3.1 2.5-4.3 1.1-1.2 2.4-2.2 4-2.9s3.3-1 5.3-1 3.8.3 5.3 1c1.6.7 2.9 1.7 4 2.9s1.9 2.7 2.5 4.3c.6 1.6.9 3.4.9 5.3s-.3 3.6-.9 5.2c-.6 1.6-1.4 3-2.5 4.2s-2.4 2.1-4 2.8c-1.6.7-3.3 1-5.3 1s-3.7-.3-5.3-1c-1.6-.7-2.9-1.6-4-2.8s-1.9-2.6-2.5-4.2-.9-3.4-.9-5.2c0-1.9.3-3.7.9-5.3zm5.1 8.5c.3 1 .7 1.9 1.2 2.8.6.8 1.3 1.5 2.2 2 .9.5 2 .7 3.2.7 1.3 0 2.4-.2 3.2-.7.9-.5 1.6-1.1 2.2-2 .6-.8 1-1.7 1.2-2.8.3-1 .4-2.1.4-3.2s-.1-2.2-.4-3.3-.7-2-1.2-2.8c-.6-.8-1.3-1.5-2.2-2-.9-.5-2-.7-3.2-.7-1.3 0-2.4.2-3.2.7-.9.5-1.6 1.2-2.2 2s-1 1.8-1.2 2.8-.4 2.1-.4 3.3c.1 1.1.2 2.2.4 3.2zM187.9 273.5c1.7 0 3.2.3 4.6.8 1.4.5 2.7 1.3 3.7 2.4 1 1.1 1.9 2.4 2.4 4s.9 3.4.9 5.6c0 1.9-.2 3.6-.7 5.2-.5 1.6-1.2 3-2.2 4.1-1 1.2-2.2 2.1-3.6 2.7-1.5.7-3.2 1-5.1 1h-11.1v-25.7h11.1zm-.4 20.9c.8 0 1.6-.1 2.4-.4.8-.3 1.5-.7 2.1-1.3s1.1-1.4 1.4-2.4c.4-1 .5-2.2.5-3.6 0-1.3-.1-2.5-.4-3.5s-.7-1.9-1.2-2.7-1.3-1.3-2.3-1.7c-.9-.4-2.1-.6-3.5-.6h-4v16.2h5zM229.9 273.5v4.8h-13.6v5.5h12.5v4.4h-12.5v6.3h13.9v4.8h-19.5v-25.7h19.2zM256.4 278.2v-4.8h21.1v4.8h-7.7v21h-5.7v-21h-7.7zM306.9 273.5v4.8h-13.6v5.5h12.5v4.4h-12.5v6.3h13.9v4.8h-19.5v-25.7h19.2zM326.1 273.5l6 17.7h.1l5.7-17.7h8v25.7h-5.3V281h-.1l-6.3 18.2h-4.4l-6.3-18h-.1v18h-5.3v-25.7h8zM369.6 273.5c1.6 0 3 .2 4.1.7 1.1.5 2 1.1 2.8 1.9.7.8 1.2 1.6 1.5 2.6s.5 2 .5 3.1c0 1-.2 2-.5 3s-.8 1.9-1.5 2.6c-.7.8-1.6 1.4-2.8 1.9-1.1.5-2.5.7-4.1.7h-5.9v9.2H358v-25.7h11.6zm-1.5 12.1c.6 0 1.3 0 1.9-.1.6-.1 1.1-.3 1.6-.6s.8-.7 1.1-1.2c.3-.5.4-1.2.4-2s-.1-1.5-.4-2c-.3-.5-.6-.9-1.1-1.2-.5-.3-1-.5-1.6-.6-.6-.1-1.2-.1-1.9-.1h-4.4v7.7h4.4zM394.9 273.5v21h12.5v4.8h-18.2v-25.7h5.7zM430.6 273.5l9.6 25.7h-5.9l-1.9-5.7h-9.6l-2 5.7h-5.7l9.7-25.7h5.8zm.3 15.7l-3.2-9.4h-.1l-3.3 9.4h6.6zM444.3 278.2v-4.8h21.1v4.8h-7.7v21H452v-21h-7.7zM494.8 273.5v4.8h-13.6v5.5h12.5v4.4h-12.5v6.3H495v4.8h-19.5v-25.7h19.3zM542.5 273.5v4.8h-13.6v5.5h12.5v4.4h-12.5v6.3h13.9v4.8h-19.5v-25.7h19.2zM559.4 273.5l10.7 17.2h.1v-17.2h5.3v25.7h-5.7L559.2 282h-.1v17.2h-5.3v-25.7h5.6zM602.9 299c-1.2.5-2.5.8-3.7.8-2 0-3.7-.3-5.3-1-1.6-.7-2.9-1.6-4-2.8-1.1-1.2-1.9-2.6-2.5-4.2s-.9-3.4-.9-5.2c0-1.9.3-3.7.9-5.3.6-1.6 1.4-3.1 2.5-4.3 1.1-1.2 2.4-2.2 4-2.9 1.6-.7 3.3-1 5.3-1 1.3 0 2.6.2 3.8.6 1.2.4 2.4 1 3.3 1.7 1 .8 1.8 1.7 2.5 2.8.6 1.1 1 2.4 1.2 3.9h-5.4c-.3-1.4-1-2.5-1.9-3.2-1-.7-2.1-1.1-3.5-1.1-1.3 0-2.4.2-3.2.7-.9.5-1.6 1.2-2.2 2-.6.8-1 1.8-1.2 2.8s-.4 2.1-.4 3.3c0 1.1.1 2.1.4 3.2.3 1 .7 1.9 1.2 2.8.6.8 1.3 1.5 2.2 2 .9.5 2 .7 3.2.7 1.9 0 3.3-.5 4.3-1.4 1-.9 1.6-2.3 1.8-4.1h-5.7v-4.2h10.8v13.9h-3.6l-.6-2.9c-1 .9-2.1 1.9-3.3 2.4zM627.8 273.5v25.7h-5.7v-25.7h5.7zM645.6 273.5l10.7 17.2h.1v-17.2h5.3v25.7H656L645.4 282h-.1v17.2H640v-25.7h5.6zM693.1 273.5v4.8h-13.6v5.5H692v4.4h-12.5v6.3h13.9v4.8h-19.5v-25.7h19.2z"/></g></svg>